#!OML:ASF F:\VICON\USERDATA\INSTALL\rory3\rory3.ASF
:FULLY-SPECIFIED
:DEGREES
1074
root -9.20572 19.9369 0.333579 -57.8852 -86.016 53.225
lowerback 4.31559 3.40522 -3.5173
upperback -2.52154 4.18811 -2.04184
thorax -5.13531 2.14132 -0.518873
lowerneck -11.1153 4.45596 -4.61472
upperneck 7.92046 6.19766 4.84438
head 3.87052 3.19535 2.61665
rclavicle 2.75317e-014 -6.75868e-015
rhumerus 91.6628 -24.3542 -49.2624
rradius 19.5576
rwrist 8.95765
rhand -20.578 -1.41485
rfingers 7.12502
rthumb 5.78175 -31.316
lclavicle 2.75317e-014 -6.75868e-015
lhumerus 88.2943 26.522 39.0038
lradius 24.875
lwrist 15.5053
lhand -11.8652 26.4859
lfingers 7.12502
lthumb 14.1869 55.9815
rfemur -7.58168 14.6125 19.2523
rtibia 36.3554
rfoot 7.48633 -9.65333
rtoes -4.13509
lfemur -2.8421 -9.47608 -22.4524
ltibia 31.9528
lfoot 18.8053 7.85536
ltoes -8.43951
1075
root -9.21833 19.9462 0.309969 -57.5082 -85.8241 52.9693
lowerback 4.26658 3.36265 -3.57135
upperback -2.60957 4.11486 -2.21343
thorax -5.18974 2.1029 -0.660183
lowerneck -11.1998 4.37347 -4.31928
upperneck 7.73142 6.04922 4.82452
head 3.84377 3.13143 2.55404
rclavicle 1.41137e-014 -2.78299e-015
rhumerus 91.772 -24.2642 -49.6565
rradius 19.5515
rwrist 8.64419
rhand -20.9117 -1.78488
rfingers 7.12502
rthumb 5.45958 -31.6945
lclavicle 1.41137e-014 -2.78299e-015
lhumerus 88.8942 26.2872 40.0326
lradius 24.4957
lwrist 14.1554
lhand -11.3728 26.2423
lfingers 7.12502
lthumb 14.6614 55.7039
rfemur -7.71532 14.755 19.1102
rtibia 36.4433
rfoot 7.20693 -9.94851
rtoes -2.82079
lfemur -3.142 -9.43448 -22.4241
ltibia 32.0795
lfoot 19.2599 7.24977
ltoes -8.67483
1076
root -9.22734 19.9324 0.286717 -57.5239 -85.6334 53.0359
lowerback 4.32805 3.34788 -3.6316
upperback -2.70288 4.07794 -2.29521
thorax -5.32067 2.08535 -0.716462
lowerneck -10.9794 4.31545 -4.42748
upperneck 7.29942 5.98267 4.88148
head 3.6744 3.09877 2.56871
rclavicle -7.09661e-014 1.03368e-014
rhumerus 92.0661 -24.0883 -50.1647
rradius 19.3946
rwrist 8.52117
rhand -21.1716 -2.28319
rfingers 7.12502
rthumb 5.20866 -32.1992
lclavicle -7.09661e-014 1.03368e-014
lhumerus 88.9297 26.3664 40.2368
lradius 24.3545
lwrist 13.9042
lhand -11.1059 26.2931
lfingers 7.12502
lthumb 14.9184 55.7359
rfemur -7.79192 14.8427 19.0069
rtibia 36.5268
rfoot 7.12246 -10.0484
rtoes -2.89502
lfemur -3.42609 -8.37294 -22.488
ltibia 32.2296
lfoot 20.3652 3.27638
ltoes -19.3436
1077
root -9.23505 19.9245 0.265539 -58.3197 -85.4178 53.8419
lowerback 4.46743 3.46271 -3.74597
upperback -2.71205 4.21202 -2.34168
thorax -5.41785 2.15463 -0.724178
lowerneck -10.7932 4.11421 -4.94821
upperneck 6.69148 5.77846 5.06194
head 3.4487 2.99461 2.67687
rclavicle -1.03368e-014 -9.54166e-015
rhumerus 92.5368 -24.0768 -50.8147
rradius 19.1982
rwrist 8.50988
rhand -21.0843 -3.01726
rfingers 7.12502
rthumb 5.29292 -32.9312
lclavicle -1.03368e-014 -9.54166e-015
lhumerus 89.5445 26.3108 41.1602
lradius 24.0845
lwrist 13.5657
lhand -11.0983 26.7281
lfingers 7.12502
lthumb 14.9258 56.1704
rfemur -7.79824 14.7976 18.8353
rtibia 36.5879
rfoot 7.21781 -9.83658
rtoes -3.91582
lfemur -3.60044 -7.89875 -22.6161
ltibia 32.3944
lfoot 20.5339 1.03486
ltoes -24.0045
1078
root -9.24384 19.9282 0.246214 -58.5031 -85.2286 54.0631
lowerback 4.59594 3.62541 -3.85646
upperback -2.68813 4.41354 -2.36756
thorax -5.47706 2.25738 -0.717792
lowerneck -10.8182 3.87302 -5.44036
upperneck 5.84877 5.5532 4.94777
head 3.56448 2.85219 2.99741
rclavicle -6.88789e-014 1.74931e-014
rhumerus 92.6869 -24.3441 -50.8721
rradius 19.187
rwrist 7.86718
rhand -21.0623 -4.511
rfingers 7.12502
rthumb 5.31418 -34.4244
lclavicle -6.88789e-014 1.74931e-014
lhumerus 89.8042 26.5976 41.2128
lradius 24.0833
lwrist 14.4115
lhand -11.0981 27.3437
lfingers 7.12502
lthumb 14.926 56.7859
rfemur -7.79186 14.6452 18.6767
rtibia 36.5711
rfoot 7.32962 -9.61542
rtoes -4.58706
lfemur -3.73546 -8.39885 -22.7336
ltibia 32.5833
lfoot 20.1837 1.31679
ltoes -22.3179
1079
root -9.25542 19.9406 0.230335 -57.4212 -85.1547 52.957
lowerback 4.73167 3.60167 -3.82089
upperback -2.68867 4.37423 -2.40722
thorax -5.54829 2.2359 -0.78415
lowerneck -10.7741 3.88672 -5.31807
upperneck 5.34994 5.57092 4.79241
head 3.38632 2.86031 2.90254
rclavicle 9.06458e-014 -5.96354e-015
rhumerus 92.841 -24.364 -51.103
rradius 19.2212
rwrist 6.97061
rhand -20.6347 -6.04448
rfingers 7.12502
rthumb 5.72706 -35.9471
lclavicle 9.06458e-014 -5.96354e-015
lhumerus 89.7221 27.1079 40.8077
lradius 24.1078
lwrist 15.4575
lhand -10.7896 27.6594
lfingers 7.12502
lthumb 15.2231 57.0793
rfemur -7.66086 14.3674 18.6987
rtibia 36.47
rfoot 7.35722 -9.54948
rtoes -4.64707
lfemur -3.78085 -9.2451 -22.6922
ltibia 32.7651
lfoot 19.5563 2.31785
ltoes -18.7937
1080
root -9.26865 19.9559 0.212668 -58.1084 -84.9875 53.618
lowerback 4.81479 3.47402 -3.99363
upperback -2.70373 4.17375 -2.55863
thorax -5.60987 2.13856 -0.831933
lowerneck -10.7501 4.01918 -4.83014
upperneck 4.90637 5.69312 4.65539
head 3.23456 2.92798 2.75584
rclavicle -4.76089e-014 1.59028e-014
rhumerus 93.8459 -23.8534 -52.9512
rradius 18.8916
rwrist 7.10594
rhand -20.5507 -6.63965
rfingers 7.12502
rthumb 5.80817 -36.54
lclavicle -4.76089e-014 1.59028e-014
lhumerus 90.5372 26.9833 42.229
lradius 23.7225
lwrist 14.6013
lhand -10.4165 27.6144
lfingers 7.12502
lthumb 15.5825 57.0067
rfemur -7.49974 14.1014 18.552
rtibia 36.342
rfoot 7.29853 -9.55482
rtoes -4.44419
lfemur -3.79183 -9.90634 -22.779
ltibia 32.9077
lfoot 18.6953 3.15839
ltoes -15.502
1081
root -9.27813 19.9581 0.195115 -59.845 -84.7069 55.3612
lowerback 4.87979 3.45324 -4.28039
upperback -2.71584 4.10567 -2.73352
thorax -5.66783 2.10976 -0.853298
lowerneck -10.5921 3.97307 -4.72203
upperneck 4.309 5.6129 4.72694
head 3.0032 2.89508 2.72961
rclavicle -1.68967e-015 -1.82882e-014
rhumerus 94.6009 -23.5451 -54.3544
rradius 18.7019
rwrist 6.8756
rhand -20.8084 -7.29492
rfingers 7.12502
rthumb 5.5593 -37.202
lclavicle -1.68967e-015 -1.82882e-014
lhumerus 91.5786 26.6347 44.1388
lradius 23.3726
lwrist 13.6226
lhand -10.133 27.6903
lfingers 7.12502
lthumb 15.8555 57.0611
rfemur -7.39259 13.9478 18.2929
rtibia 36.2434
rfoot 7.29979 -9.59657
rtoes -5.00138
lfemur -3.79053 -10.159 -23.0411
ltibia 33.0036
lfoot 17.8113 3.06412
ltoes -14.2597
1082
root -9.2875 19.9578 0.179516 -60.6091 -84.6056 56.1081
lowerback 4.9519 3.51575 -4.33159
upperback -2.69736 4.17409 -2.83122
thorax -5.68793 2.14226 -0.93758
lowerneck -10.3904 3.81868 -4.69411
upperneck 3.5989 5.41019 4.64371
head 2.73551 2.79246 2.65553
rclavicle 3.97569e-016 -2.54444e-014
rhumerus 94.4435 -23.76 -54.0695
rradius 18.9188
rwrist 5.41359
rhand -21.4749 -8.80216
rfingers 7.12502
rthumb 4.91581 -38.7251
lclavicle 3.97569e-016 -2.54444e-014
lhumerus 92.2313 26.5795 45.0609
lradius 23.1982
lwrist 13.8805
lhand -10.1124 27.9423
lfingers 7.12502
lthumb 15.8754 57.3116
rfemur -7.28243 13.9667 18.2725
rtibia 36.1958
rfoot 7.12999 -9.81956
rtoes -4.83631
lfemur -3.69549 -10.5352 -23.1414
ltibia 33.0484
lfoot 16.703 3.09536
ltoes -13.2522
1083
root -9.29814 19.9608 0.164222 -60.1763 -84.6893 55.6282
lowerback 5.05009 3.53256 -4.18078
upperback -2.70405 4.20133 -2.84358
thorax -5.7389 2.15043 -1.04345
lowerneck -10.2251 3.72207 -4.68255
upperneck 3.01839 5.28666 4.54366
head 2.51652 2.72774 2.58967
rclavicle -1.38155e-014 1.59028e-014
rhumerus 94.1994 -23.8427 -53.7103
rradius 19.0787
rwrist 4.24066
rhand -23.2298 -10.8532
rfingers 7.12502
rthumb 3.22116 -40.8086
lclavicle -1.38155e-014 1.59028e-014
lhumerus 92.6985 26.5947 45.7876
lradius 23.0779
lwrist 14.3942
lhand -9.98925 28.2749
lfingers 7.12502
lthumb 15.994 57.6347
rfemur -7.16659 13.9905 18.5004
rtibia 36.2165
rfoot 6.89712 -10.0259
rtoes -4.55045
lfemur -3.57961 -10.8546 -22.9995
ltibia 33.0431
lfoot 15.658 3.11104
ltoes -13.1342
1084
root -9.31094 19.9557 0.154015 -59.27 -84.697 54.7262
lowerback 5.11641 3.58591 -4.03893
upperback -2.76296 4.27924 -2.81835
thorax -5.83097 2.18546 -1.11143
lowerneck -10.1344 3.55101 -4.98314
upperneck 2.62308 5.09455 4.60907
head 2.36928 2.63095 2.643
rclavicle -9.01488e-014 4.69132e-014
rhumerus 94.1966 -23.7924 -53.7716
rradius 19.0864
rwrist 3.70403
rhand -24.913 -12.5023
rfingers 7.12502
rthumb 1.59564 -42.476
lclavicle -9.01488e-014 4.69132e-014
lhumerus 93.1862 26.4326 46.914
lradius 22.9074
lwrist 14.7755
lhand -9.89649 27.8141
lfingers 7.12502
lthumb 16.0833 57.1667
rfemur -7.12258 13.5849 18.6227
rtibia 36.2658
rfoot 6.92705 -9.764
rtoes -5.67505
lfemur -3.57604 -10.8241 -22.9365
ltibia 32.9953
lfoot 15.0826 2.24146
ltoes -15.9562
1085
root -9.32336 19.9396 0.142646 -59.4571 -84.5702 54.954
lowerback 5.16929 3.63915 -4.16119
upperback -2.80237 4.33844 -2.77372
thorax -5.91712 2.22093 -1.01027
lowerneck -10.1052 3.32034 -5.4128
upperneck 2.05862 4.84099 4.69614
head 2.17899 2.50409 2.72327
rclavicle 1.09332e-015 2.62396e-014
rhumerus 94.3323 -23.7222 -53.8609
rradius 19.1105
rwrist 3.157
rhand -25.6931 -13.2523
rfingers 7.12502
rthumb 0.842119 -43.2304
lclavicle 1.09332e-015 2.62396e-014
lhumerus 92.892 27.2621 45.7573
lradius 22.9234
lwrist 17.4966
lhand -9.60997 27.6436
lfingers 7.12502
lthumb 16.3592 56.9737
rfemur -7.09308 13.2224 18.5461
rtibia 36.2784
rfoot 6.83207 -9.57385
rtoes -6.3266
lfemur -3.60386 -10.4944 -23.0538
ltibia 32.939
lfoot 14.5723 0.96232
ltoes -18.7622
1086
root -9.33703 19.9259 0.128511 -60.2306 -84.426 55.7893
lowerback 5.14598 3.57828 -4.45001
upperback -2.83891 4.2299 -2.80476
thorax -5.96103 2.17715 -0.872161
lowerneck -10.0729 3.23653 -5.2036
upperneck 1.45803 4.71483 4.51525
head 1.98701 2.43806 2.6012
rclavicle 4.4329e-014 -3.49861e-014
rhumerus 94.5547 -23.5403 -54.1929
rradius 19.0675
rwrist 2.70143
rhand -26.0754 -13.4559
rfingers 7.12502
rthumb 0.472932 -43.4351
lclavicle 4.4329e-014 -3.49861e-014
lhumerus 94.0083 26.9162 47.7188
lradius 22.4406
lwrist 16.8009
lhand -9.20113 27.632
lfingers 7.12502
lthumb 16.7528 56.9292
rfemur -7.04079 13.1324 18.4436
rtibia 36.2534
rfoot 6.52723 -9.6765
rtoes -5.77897
lfemur -3.64558 -10.319 -23.2213
ltibia 32.878
lfoot 13.6316 0.114047
ltoes -20.4936
